<svg xmlns="http://www.w3.org/2000/svg" xmlns:xlink="http://www.w3.org/1999/xlink" viewBox="0 0 400 400"><defs><style>.a{fill:url(#a);}.b{fill:url(#b);}.c{fill:url(#c);}.d{fill:url(#d);}.e{fill:url(#e);}.f{fill:url(#f);}.g{fill:url(#g);}.h{fill:url(#h);}.i{fill:url(#i);}.j{fill:#72ae24;}</style><radialGradient id="a" cx="200" cy="249.62" r="126.37" gradientUnits="userSpaceOnUse"><stop offset="0.18" stop-color="#ef48ab"/><stop offset="0.25" stop-color="#ee3da6"/><stop offset="0.43" stop-color="#ed229a"/><stop offset="0.61" stop-color="#ec0f92"/><stop offset="0.8" stop-color="#eb048d"/><stop offset="1" stop-color="#eb008b"/></radialGradient><radialGradient id="b" cx="164.14" cy="28.12" r="17.1" gradientUnits="userSpaceOnUse"><stop offset="0.5" stop-color="#ef44a9"/><stop offset="0.53" stop-color="#ef3da6"/><stop offset="0.64" stop-color="#ed229a"/><stop offset="0.75" stop-color="#ec0f92"/><stop offset="0.87" stop-color="#eb048d"/><stop offset="1" stop-color="#eb008b"/></radialGradient><radialGradient id="c" cx="241.08" cy="33.82" r="17.1" gradientUnits="userSpaceOnUse"><stop offset="0" stop-color="#ef48ab"/><stop offset="0.08" stop-color="#ee3da6"/><stop offset="0.3" stop-color="#ed229a"/><stop offset="0.52" stop-color="#ec0f92"/><stop offset="0.75" stop-color="#eb048d"/><stop offset="1" stop-color="#eb008b"/></radialGradient><radialGradient id="d" cx="210.21" cy="46.17" r="10.92" xlink:href="#c"/><radialGradient id="e" cx="147.05" cy="63.27" r="11.64" xlink:href="#c"/><radialGradient id="f" cx="185.51" cy="51.4" r="5.7" xlink:href="#c"/><radialGradient id="g" cx="210.21" cy="87.49" r="5.7" xlink:href="#c"/><radialGradient id="h" cx="233.48" cy="72.77" r="14.96" xlink:href="#c"/><radialGradient id="i" cx="181.72" cy="79.42" r="16.62" xlink:href="#c"/></defs><title>bottle</title><path class="a" d="M309.35,348.51,227.62,230.3l-.36-97.41s10.94,0,10.21-11.68-7.29-10.94-7.29-10.94h-46s-11.68-.73-12.41,16,0,105.81,0,105.81L89.71,349.24s-12.4,38.68,32.11,39.41,158.34,0,158.34,0S322.49,387.19,309.35,348.51Zm-150,20.8a27,27,0,1,1,27-27A27,27,0,0,1,159.4,369.31ZM185.67,289A16.05,16.05,0,1,1,201.72,273,16.05,16.05,0,0,1,185.67,289Zm48.16,54a19,19,0,1,1,19-19A19,19,0,0,1,233.83,343ZM266,307.79a9.12,9.12,0,0,1-12.74-2l-50.6-69.64H189a8.78,8.78,0,0,1-8.76-8.76v-99.6a8.78,8.78,0,0,1,6.24-8.38,17.09,17.09,0,0,1,3.62-.38h33.59a17.09,17.09,0,0,1,3.62.38h-.57a4.56,4.56,0,1,1,0,9.11h-5.63v98.87a8.6,8.6,0,0,1-.38,2.55L268,295.05A9.12,9.12,0,0,1,266,307.79Z"/><circle class="b" cx="164.14" cy="28.12" r="17.1"/><circle class="c" cx="241.08" cy="33.82" r="17.1"/><circle class="d" cx="210.21" cy="46.17" r="10.92"/><circle class="e" cx="147.05" cy="63.27" r="11.64"/><circle class="f" cx="185.51" cy="51.4" r="5.7"/><circle class="g" cx="210.21" cy="87.49" r="5.7"/><circle class="h" cx="233.48" cy="72.77" r="14.96"/><circle class="i" cx="181.72" cy="79.42" r="16.62"/><circle class="j" cx="201.72" cy="143.1" r="12.4"/></svg>