<svg xmlns="http://www.w3.org/2000/svg" xmlns:xlink="http://www.w3.org/1999/xlink" viewBox="0 0 400 400"><defs><style>.a{fill:url(#a);}.b{fill:#fff;}.c{fill:#72ae24;}</style><radialGradient id="a" cx="200" cy="200" r="159.68" gradientUnits="userSpaceOnUse"><stop offset="0" stop-color="#ef48ab"/><stop offset="0.08" stop-color="#ee3da6"/><stop offset="0.3" stop-color="#ed229a"/><stop offset="0.52" stop-color="#ec0f92"/><stop offset="0.75" stop-color="#eb048d"/><stop offset="1" stop-color="#eb008b"/></radialGradient></defs><title>clip board</title><path class="a" d="M317.5,59H257.92a7.06,7.06,0,0,0-7-6H227V42a27,27,0,0,0-54,0V53H149a7.06,7.06,0,0,0-6.95,6H82.5a12,12,0,0,0-12,12V373a12,12,0,0,0,12,12h235a12,12,0,0,0,12-12V71A12,12,0,0,0,317.5,59ZM181,41a19,19,0,1,1,25.07,18A19,19,0,0,1,181,41Z"/><circle class="b" cx="125" cy="127" r="15"/><rect class="b" x="158" y="116" width="132" height="8" rx="4" ry="4"/><rect class="b" x="158" y="129" width="132" height="8" rx="4" ry="4"/><circle class="c" cx="125" cy="181" r="15"/><rect class="b" x="158" y="170" width="132" height="8" rx="4" ry="4"/><rect class="b" x="158" y="183" width="132" height="8" rx="4" ry="4"/><circle class="b" cx="125" cy="235" r="15"/><rect class="b" x="158" y="224" width="132" height="8" rx="4" ry="4"/><rect class="b" x="158" y="237" width="132" height="8" rx="4" ry="4"/><circle class="b" cx="125" cy="289" r="15"/><rect class="b" x="158" y="278" width="132" height="8" rx="4" ry="4"/><rect class="b" x="158" y="291" width="132" height="8" rx="4" ry="4"/><polygon class="b" points="124.01 189.36 113.46 178.82 118.43 173.85 124.01 179.44 137.04 166.41 142 171.37 124.01 189.36"/></svg>