<svg xmlns="http://www.w3.org/2000/svg" xmlns:xlink="http://www.w3.org/1999/xlink" viewBox="0 0 400 400"><defs><style>.a{fill:#72ae24;}.b{fill:url(#a);}.c{fill:url(#b);}.d{fill:url(#c);}.e{fill:url(#d);}.f{fill:url(#e);}.g{fill:url(#f);}.h{fill:url(#g);}.i{fill:url(#h);}.j{fill:url(#i);}.k{fill:url(#j);}</style><radialGradient id="a" cx="143.72" cy="39.58" r="29.58" gradientUnits="userSpaceOnUse"><stop offset="0.5" stop-color="#ef44a9"/><stop offset="0.53" stop-color="#ef3da6"/><stop offset="0.64" stop-color="#ed229a"/><stop offset="0.75" stop-color="#ec0f92"/><stop offset="0.87" stop-color="#eb048d"/><stop offset="1" stop-color="#eb008b"/></radialGradient><radialGradient id="b" cx="276.82" cy="49.44" r="29.58" gradientUnits="userSpaceOnUse"><stop offset="0" stop-color="#ef48ab"/><stop offset="0.08" stop-color="#ee3da6"/><stop offset="0.3" stop-color="#ed229a"/><stop offset="0.52" stop-color="#ec0f92"/><stop offset="0.75" stop-color="#eb048d"/><stop offset="1" stop-color="#eb008b"/></radialGradient><radialGradient id="c" cx="223.42" cy="70.8" r="18.9" xlink:href="#b"/><radialGradient id="d" cx="114.14" cy="100.38" r="20.13" xlink:href="#b"/><radialGradient id="e" cx="180.69" cy="79.84" r="9.86" xlink:href="#b"/><radialGradient id="f" cx="223.42" cy="142.28" r="9.86" xlink:href="#b"/><radialGradient id="g" cx="263.68" cy="116.81" r="25.88" xlink:href="#b"/><radialGradient id="h" cx="174.12" cy="128.31" r="28.76" xlink:href="#b"/><radialGradient id="i" cx="200" cy="151.73" r="90.42" gradientUnits="userSpaceOnUse"><stop offset="0.18" stop-color="#ef48ab"/><stop offset="0.25" stop-color="#ee3da6"/><stop offset="0.43" stop-color="#ed229a"/><stop offset="0.61" stop-color="#ec0f92"/><stop offset="0.8" stop-color="#eb048d"/><stop offset="1" stop-color="#eb008b"/></radialGradient><radialGradient id="j" cx="198.77" cy="261.33" r="103.84" xlink:href="#i"/></defs><title>funnel</title><circle class="a" cx="204.11" cy="376.03" r="13.97"/><circle class="b" cx="143.72" cy="39.58" r="29.58"/><circle class="c" cx="276.82" cy="49.44" r="29.58"/><circle class="d" cx="223.42" cy="70.8" r="18.9"/><circle class="e" cx="114.14" cy="100.38" r="20.13"/><circle class="f" cx="180.69" cy="79.84" r="9.86"/><circle class="g" cx="223.42" cy="142.28" r="9.86"/><circle class="h" cx="263.68" cy="116.81" r="25.88"/><circle class="i" cx="174.12" cy="128.31" r="28.76"/><path class="j" d="M320.39,163.23H79.61a7,7,0,0,1-7-7v-9.08a7,7,0,0,1,7-7H320.39a7,7,0,0,1,7,7v9.08A7,7,0,0,1,320.39,163.23Z"/><path class="k" d="M86.62,166.52h224.3l-96.13,96.13v68.7a7.7,7.7,0,0,1-2.25,5.44l-17.29,17.29a7,7,0,0,1-11.89-4.92v-86.1Z"/></svg>